<?xml version="1.0" encoding="UTF-8"?>
<!--Generator: Apple Native CoreSVG 232.5-->
<!DOCTYPE svg
PUBLIC "-//W3C//DTD SVG 1.1//EN"
       "http://www.w3.org/Graphics/SVG/1.1/DTD/svg11.dtd">
<svg version="1.1" xmlns="http://www.w3.org/2000/svg" xmlns:xlink="http://www.w3.org/1999/xlink" width="15.7352" height="12.99185">
 <g>
  <rect height="8.99185" opacity="0" width="15.7352" x="0" y="0"/>
  <path d="M0.137115 8.04141C0.0625014 8.12735 0 8.21134 0 8.32462C0 8.54417 0.16993 8.70707 0.382442 8.70707C0.488698 8.70707 0.596516 8.68245 0.658629 8.60784L7.99848 0.612543L7.38245 0.612543L14.7082 8.60784C14.7801 8.68245 14.8879 8.70707 14.9844 8.70707C15.204 8.70707 15.3739 8.54417 15.3739 8.32462C15.3739 8.21134 15.3184 8.13438 15.2438 8.05547L8.04379 0.187504C7.94106 0.079298 7.82347 0 7.6848 0C7.53636 0 7.42854 0.0722671 7.32307 0.180473Z" fill="#ffffff" fill-opacity="0.85"/>
 </g>
</svg>
