<?xml version="1.0" encoding="UTF-8"?>
<!--Generator: Apple Native CoreSVG 232.5-->
<!DOCTYPE svg
PUBLIC "-//W3C//DTD SVG 1.1//EN"
       "http://www.w3.org/Graphics/SVG/1.1/DTD/svg11.dtd">
<svg version="1.1" xmlns="http://www.w3.org/2000/svg" xmlns:xlink="http://www.w3.org/1999/xlink" width="15.7352" height="12.05045">
 <g>
  <rect height="9.05045" opacity="0" width="15.7352" x="0" y="0"/>
  <path d="M7.6848 9.05045C7.82347 9.05045 7.94106 8.97388 8.04379 8.86568L15.2438 0.994978C15.3184 0.906303 15.3739 0.832078 15.3739 0.721526C15.3739 0.509014 15.204 0.336349 14.9844 0.336349C14.8879 0.336349 14.7828 0.370727 14.7082 0.442605L7.38245 8.43361L7.99848 8.43361L0.658629 0.442605C0.593781 0.370727 0.488698 0.336349 0.382442 0.336349C0.16993 0.336349 0 0.509014 0 0.721526C0 0.832078 0.0625014 0.920365 0.137115 1.00474L7.32307 8.87271C7.43127 8.98091 7.53636 9.05045 7.6848 9.05045Z" fill="#ffffff" fill-opacity="0.85"/>
 </g>
</svg>
