<?xml version="1.0" encoding="UTF-8"?>
<!--Generator: Apple Native CoreSVG 232.5-->
<!DOCTYPE svg
PUBLIC "-//W3C//DTD SVG 1.1//EN"
       "http://www.w3.org/Graphics/SVG/1.1/DTD/svg11.dtd">
<svg version="1.1" xmlns="http://www.w3.org/2000/svg" xmlns:xlink="http://www.w3.org/1999/xlink" width="9.9707" height="13.623">
 <g>
  <rect height="13.623" opacity="0" width="9.9707" x="0" y="0"/>
  <path d="M0 6.80664C0 7.02148 0.0878906 7.2168 0.244141 7.38281L6.2793 13.3789C6.42578 13.5352 6.63086 13.6133 6.85547 13.6133C7.31445 13.6133 7.65625 13.2715 7.65625 12.8125C7.65625 12.5879 7.56836 12.3926 7.42188 12.2363L1.97266 6.80664L7.42188 1.37695C7.56836 1.2207 7.65625 1.01562 7.65625 0.800781C7.65625 0.341797 7.31445 0 6.85547 0C6.63086 0 6.42578 0.078125 6.2793 0.234375L0.244141 6.23047C0.0878906 6.39648 0 6.5918 0 6.80664Z" fill="#ffffff" fill-opacity="0.85"/>
 </g>
</svg>
