<?xml version="1.0" encoding="UTF-8"?>
<!--Generator: Apple Native CoreSVG 232.5-->
<!DOCTYPE svg
PUBLIC "-//W3C//DTD SVG 1.1//EN"
       "http://www.w3.org/Graphics/SVG/1.1/DTD/svg11.dtd">
<svg version="1.1" xmlns="http://www.w3.org/2000/svg" xmlns:xlink="http://www.w3.org/1999/xlink" width="9.24805" height="13.623">
 <g>
  <rect height="13.623" opacity="0" width="9.24805" x="0" y="0"/>
  <path d="M9.24805 6.80664C9.24805 6.5918 9.16992 6.39648 9.00391 6.23047L2.96875 0.234375C2.82227 0.078125 2.62695 0 2.40234 0C1.94336 0 1.5918 0.341797 1.5918 0.800781C1.5918 1.01562 1.68945 1.2207 1.82617 1.37695L7.28516 6.80664L1.82617 12.2363C1.68945 12.3926 1.5918 12.5879 1.5918 12.8125C1.5918 13.2715 1.94336 13.6133 2.40234 13.6133C2.62695 13.6133 2.82227 13.5352 2.96875 13.3789L9.00391 7.38281C9.16992 7.2168 9.24805 7.02148 9.24805 6.80664Z" fill="#ffffff" fill-opacity="0.85"/>
 </g>
</svg>
