<?xml version="1.0" encoding="UTF-8"?>
<!--Generator: Apple Native CoreSVG 232.5-->
<!DOCTYPE svg
PUBLIC "-//W3C//DTD SVG 1.1//EN"
       "http://www.w3.org/Graphics/SVG/1.1/DTD/svg11.dtd">
<svg version="1.1" xmlns="http://www.w3.org/2000/svg" xmlns:xlink="http://www.w3.org/1999/xlink" width="14.5703" height="11.7285">
 <g>
  <rect height="11.7285" opacity="0" width="14.5703" x="0" y="0"/>
  <path d="M14.209 5.85938C14.209 5.64453 14.1113 5.43945 13.9355 5.27344L8.89648 0.244141C8.7207 0.078125 8.52539 0 8.32031 0C7.89062 0 7.55859 0.322266 7.55859 0.761719C7.55859 0.966797 7.62695 1.17188 7.77344 1.30859L9.12109 2.70508L12.4219 5.68359L12.5977 5.25391L10 5.06836L0.78125 5.06836C0.322266 5.06836 0 5.40039 0 5.85938C0 6.31836 0.322266 6.65039 0.78125 6.65039L10 6.65039L12.5977 6.46484L12.4219 6.04492L9.12109 9.01367L7.77344 10.4102C7.62695 10.5469 7.55859 10.752 7.55859 10.957C7.55859 11.3965 7.89062 11.7188 8.32031 11.7188C8.52539 11.7188 8.7207 11.6406 8.89648 11.4746L13.9355 6.44531C14.1113 6.2793 14.209 6.07422 14.209 5.85938Z" fill="#ffffff" fill-opacity="0.85"/>
 </g>
</svg>
