<?xml version="1.0" encoding="UTF-8"?>
<!--Generator: Apple Native CoreSVG 232.5-->
<!DOCTYPE svg
PUBLIC "-//W3C//DTD SVG 1.1//EN"
       "http://www.w3.org/Graphics/SVG/1.1/DTD/svg11.dtd">
<svg version="1.1" xmlns="http://www.w3.org/2000/svg" xmlns:xlink="http://www.w3.org/1999/xlink" width="16.6699" height="14.9121">
 <g>
  <rect height="14.9121" opacity="0" width="16.6699" x="0" y="0"/>
  <path d="M11.0156 14.209C11.2012 14.209 11.4355 14.1113 11.582 13.9648L16.0449 9.61914C16.2207 9.44336 16.3086 9.23828 16.3086 9.02344C16.3086 8.80859 16.2207 8.60352 16.0449 8.4375L11.582 4.0918C11.4355 3.93555 11.2012 3.84766 11.0156 3.84766C10.5469 3.84766 10.2344 4.16016 10.2344 4.61914C10.2344 4.84375 10.3125 5.01953 10.4492 5.15625L12.5293 7.16797L14.4629 8.7793L14.6191 8.35938L12.1094 8.24219L2.66602 8.24219C1.88477 8.24219 1.57227 7.92969 1.57227 7.13867L1.57227 2.66602C1.57227 1.88477 1.88477 1.57227 2.66602 1.57227L6.69922 1.57227C7.1875 1.57227 7.50977 1.2207 7.50977 0.791016C7.50977 0.351562 7.1875 0 6.69922 0L2.66602 0C0.751953 0 0 0.751953 0 2.66602L0 7.13867C0 8.96484 0.751953 9.81445 2.66602 9.81445L12.1094 9.81445L14.6191 9.6875L14.4629 9.27734L12.5293 10.8887L10.4492 12.8906C10.3125 13.0371 10.2344 13.2031 10.2344 13.4277C10.2344 13.8867 10.5469 14.209 11.0156 14.209Z" fill="#ffffff" fill-opacity="0.85"/>
 </g>
</svg>
